<?xml version="1.0" encoding="utf-8" ?><svg xmlns="http://www.w3.org/2000/svg" xmlns:xlink="http://www.w3.org/1999/xlink" width="800" height="568" viewBox="0 0 800 568"><defs><linearGradient id="gradient_0" gradientUnits="userSpaceOnUse" x1="424.50903" y1="237.60461" x2="468.31744" y2="237.42531"><stop offset="0" stop-color="#348B91"/><stop offset="1" stop-color="#4DC6CD"/></linearGradient></defs><path fill="url(#gradient_0)" d="M409.787 209.325C411.401 208.032 429.877 208.648 433.389 208.684C442.953 208.628 452.494 208.846 462.06 208.883C475.264 209.008 488.47 209.008 501.674 208.883L501.613 266.784L468.795 266.771L432.111 266.737C423.373 266.753 414.634 266.698 405.896 266.574C406.575 261.755 406.859 252.899 407.201 247.793L409.787 209.325Z"/><path fill="#984878" d="M462.06 208.883C475.264 209.008 488.47 209.008 501.674 208.883L501.613 266.784L468.795 266.771C468.855 261.407 469.3 256.27 469.249 250.621C469.108 235.207 466.265 223.472 462.06 208.883Z"/><defs><linearGradient id="gradient_1" gradientUnits="userSpaceOnUse" x1="406.79474" y1="237.45206" x2="427.13123" y2="237.58115"><stop offset="0" stop-color="#1A6268"/><stop offset="1" stop-color="#348B92"/></linearGradient></defs><path fill="url(#gradient_1)" d="M409.787 209.325C411.401 208.032 429.877 208.648 433.389 208.684C431.851 209.974 428.546 209.458 426.446 209.351C425.193 216.43 425.488 219.959 425.451 226.952L425.217 244.986C425.2 250.7 425.075 256.423 425.049 262.137C425.026 267.208 429.307 264.888 432.111 266.737C423.373 266.753 414.634 266.698 405.896 266.574C406.575 261.755 406.859 252.899 407.201 247.793L409.787 209.325Z"/><defs><linearGradient id="gradient_2" gradientUnits="userSpaceOnUse" x1="395.12961" y1="105.22465" x2="461.26657" y2="106.83344"><stop offset="0" stop-color="#B72060"/><stop offset="1" stop-color="#FF3582"/></linearGradient></defs><path fill="url(#gradient_2)" d="M400.021 77.0215C419.925 77.2775 441.391 77.2502 461.293 76.9833C463.784 100.576 462.655 112.121 456.93 134.882L457.545 135.441L414.203 135.389C412.18 135.38 400.339 135.226 399.176 135.533C387.845 136.053 371.64 135.507 359.934 135.453C354.695 135.767 346.256 135.522 340.997 135.377C341.82 134.007 353.187 122.942 354.676 121.809C357.62 118.134 397.831 78.0396 400.021 77.0215Z"/><defs><linearGradient id="gradient_3" gradientUnits="userSpaceOnUse" x1="358.67978" y1="107.14332" x2="397.45663" y2="107.43065"><stop offset="0" stop-color="#650030"/><stop offset="1" stop-color="#AC1C5A"/></linearGradient></defs><path fill="url(#gradient_3)" d="M354.676 121.809C357.62 118.134 397.831 78.0396 400.021 77.0215C399.133 78.8673 396.528 80.7774 396.128 81.8002L397.187 81.7401C397.599 96.5774 398.224 111.793 397.777 126.688C397.699 129.296 396.711 131.069 398.081 133.595C400.814 135.064 411.239 134.355 414.203 135.389C412.18 135.38 400.339 135.226 399.176 135.533C387.845 136.053 371.64 135.507 359.934 135.453C354.695 135.767 346.256 135.522 340.997 135.377C341.82 134.007 353.187 122.942 354.676 121.809Z"/><path fill="#640034" d="M354.676 121.809C356.986 121.336 358.481 120.715 360.996 120.993C366.743 121.627 393.33 131.01 396.093 134.521C388.265 134.923 379.597 134.424 371.603 134.976C368.054 135.221 363.372 134.668 359.934 135.453C354.695 135.767 346.256 135.522 340.997 135.377C341.82 134.007 353.187 122.942 354.676 121.809Z"/><defs><linearGradient id="gradient_4" gradientUnits="userSpaceOnUse" x1="364.9642" y1="231.81645" x2="373.91904" y2="133.77661"><stop offset="0" stop-color="#AD0E62"/><stop offset="1" stop-color="#DA1F7B"/></linearGradient></defs><path fill="url(#gradient_4)" d="M340.997 135.377C346.256 135.522 354.695 135.767 359.934 135.453C371.64 135.507 387.845 136.053 399.176 135.533C399.421 159.353 398.713 184.986 399.4 208.509L399.479 216.015C399.154 215.951 398.83 215.887 398.505 215.823C383.923 223.016 368.607 228.267 352.378 230.092C348.776 230.497 344.942 230.825 341.207 231.109L340.997 135.377Z"/><defs><linearGradient id="gradient_5" gradientUnits="userSpaceOnUse" x1="346.41159" y1="359.07196" x2="387.29309" y2="287.46021"><stop offset="0" stop-color="#372541"/><stop offset="1" stop-color="#533E60"/></linearGradient></defs><path fill="url(#gradient_5)" d="M341.305 277.542C344.747 277.629 347.457 277.624 350.866 278.216C367.616 280.394 389.755 286.731 403.885 296.295C402.125 311.331 401.989 326.976 400.509 342.085C400.006 347.22 399.585 352.781 399.514 357.931C380.253 357.617 360.613 357.994 341.282 357.844L341.305 277.542Z"/><defs><linearGradient id="gradient_6" gradientUnits="userSpaceOnUse" x1="392.50449" y1="296.95526" x2="374.25748" y2="219.42143"><stop offset="0" stop-color="#92C4CB"/><stop offset="1" stop-color="#ABE7EE"/></linearGradient></defs><path fill="url(#gradient_6)" d="M401.969 215.784C404.72 213.611 407.165 211.656 409.787 209.325L407.201 247.793C406.859 252.899 406.575 261.755 405.896 266.574C405.299 275.232 404.045 287.959 403.885 296.295C389.755 286.731 367.616 280.394 350.866 278.216C347.457 277.624 344.747 277.629 341.305 277.542C341.277 271.466 341.178 265.266 341.373 259.203C341.135 257.16 341.255 252.053 341.253 249.834L341.207 231.109C344.942 230.825 348.776 230.497 352.378 230.092C368.607 228.267 383.923 223.016 398.505 215.823C398.83 215.887 399.154 215.951 399.479 216.015L399.927 217.662C400.499 217.053 401.327 216.356 401.969 215.784Z"/><defs><linearGradient id="gradient_7" gradientUnits="userSpaceOnUse" x1="368.92471" y1="268.60532" x2="370.35553" y2="216.06526"><stop offset="0" stop-color="#56767C"/><stop offset="1" stop-color="#89B7BE"/></linearGradient></defs><path fill="url(#gradient_7)" d="M341.207 231.109C344.942 230.825 348.776 230.497 352.378 230.092C368.607 228.267 383.923 223.016 398.505 215.823C398.83 215.887 399.154 215.951 399.479 216.015L399.927 217.662C398.622 219.423 391.207 226.046 389.268 227.831L365.807 249.507C362.402 252.644 355.471 258.687 352.852 261.796L351.729 271.208L350.866 278.216C347.457 277.624 344.747 277.629 341.305 277.542C341.277 271.466 341.178 265.266 341.373 259.203C341.135 257.16 341.255 252.053 341.253 249.834L341.207 231.109Z"/><path fill="#547278" d="M341.373 259.203C341.787 261.92 341.733 265.795 344.15 267.466C345.789 268.598 349.622 268.968 351.489 268.265C351.488 269.276 351.413 270.254 351.729 271.208L350.866 278.216C347.457 277.624 344.747 277.629 341.305 277.542C341.277 271.466 341.178 265.266 341.373 259.203Z"/><path fill="#BDDC9D" d="M461.293 76.9833L500.852 77.0759C506.794 77.0836 516.284 77.37 521.91 76.9899C521.912 86.624 522.258 98.556 521.864 107.994C522.211 112.339 522.016 117.257 522.036 121.686C522.057 126.166 522.339 130.967 522.289 135.389C501.16 136.057 478.504 134.669 457.545 135.441L456.93 134.882C462.655 112.121 463.784 100.576 461.293 76.9833Z"/><path fill="#D8EABE" d="M456.93 134.882C459.889 132.849 464.447 127.716 467.812 125.061C481.823 114.007 503.36 102.591 521.475 101.87C521.477 104.255 521.43 105.663 521.864 107.994C522.211 112.339 522.016 117.257 522.036 121.686C522.057 126.166 522.339 130.967 522.289 135.389C501.16 136.057 478.504 134.669 457.545 135.441L456.93 134.882Z"/></svg>